<?xml version="1.0" encoding="UTF-8" standalone="no"?>
<svg
   xmlns:dc="http://purl.org/dc/elements/1.1/"
   xmlns:cc="http://creativecommons.org/ns#"
   xmlns:rdf="http://www.w3.org/1999/02/22-rdf-syntax-ns#"
   xmlns:svg="http://www.w3.org/2000/svg"
   xmlns="http://www.w3.org/2000/svg"
   xmlns:sodipodi="http://sodipodi.sourceforge.net/DTD/sodipodi-0.dtd"
   xmlns:inkscape="http://www.inkscape.org/namespaces/inkscape"
   width="177.9601mm"
   height="180.00078mm"
   viewBox="0 0 177.9601 180.00078"
   version="1.1"
   id="svg8"
   inkscape:version="1.0.2-2 (e86c870879, 2021-01-15)"
   sodipodi:docname="cnc_logo.svg">
  <defs
     id="defs2" />
  <sodipodi:namedview
     id="base"
     pagecolor="#ffffff"
     bordercolor="#666666"
     borderopacity="1.0"
     inkscape:pageopacity="0.0"
     inkscape:pageshadow="2"
     inkscape:zoom="1.4"
     inkscape:cx="139.72946"
     inkscape:cy="313.37466"
     inkscape:document-units="mm"
     inkscape:current-layer="layer1"
     inkscape:document-rotation="0"
     showgrid="false"
     fit-margin-top="0"
     fit-margin-left="0"
     fit-margin-right="0"
     fit-margin-bottom="0"
     inkscape:window-width="2560"
     inkscape:window-height="1511"
     inkscape:window-x="-9"
     inkscape:window-y="-9"
     inkscape:window-maximized="1" />
  <metadata
     id="metadata5">
    <rdf:RDF>
      <cc:Work
         rdf:about="">
        <dc:format>image/svg+xml</dc:format>
        <dc:type
           rdf:resource="http://purl.org/dc/dcmitype/StillImage" />
        <dc:title></dc:title>
      </cc:Work>
    </rdf:RDF>
  </metadata>
  <g
     inkscape:label="Calque 1"
     inkscape:groupmode="layer"
     id="layer1"
     transform="translate(-13.245815,-55.980226)">
    <path
       id="rect26"
       style="fill:#000000;fill-rule:evenodd;stroke-width:0.211923"
       d="m 32.67494,173.90383 53.163457,-0.13363 v 9.29626 H 36.416713 Z"
       sodipodi:nodetypes="ccccc" />
    <path
       style="fill:#000000;stroke-width:0.352778"
       d="m 120.76338,78.668028 v 8.79567 H 101.18422 81.605064 v -8.776556 -8.776553 l 2.20486,-0.549074 c 6.16451,-1.53513 15.542367,-2.22485 22.489576,-1.654048 4.32532,0.355378 12.3132,1.493015 13.84652,1.972024 0.56626,0.176915 0.61736,0.920365 0.61736,8.988537 z m 7.76115,20.878309 -4e-5,4.145133 H 101.18422 73.843954 v -4.052654 -4.052658 l 27.340306,-0.09248 27.34031,-0.09248 z m -18.81652,35.189583 c -6.08045,0 -14.891076,0.10476 -19.579156,0.23281 l -8.52379,0.23281 v -11.69808 -11.6981 h 19.579156 19.57916 v 11.46528 11.46528 z m -5.87796,32.63193 v 4.7625 h -2.64583 -2.645826 v -4.7625 -4.7625 h -7.76111 -7.76111 v -9.87778 -9.87776 h 18.168046 18.16805 v 9.87776 9.87778 h -7.76111 -7.76111 z m 4.7625,17.10972 v 4.40977 l -7.49652,0.0952 -7.496526,0.0952 v -4.60015 -4.60014 l 7.496526,0.0952 7.49652,0.0952 z m 4.56563,44.12282 v -3e-5 c -2.5913,0.53081 -5.30391,0.75519 -10.38646,0.85915 -7.681696,0.15712 -11.798996,-0.25274 -17.920786,-1.78394 -3.15605,-0.78941 -8.73254,-2.71179 -9.19512,-3.16983 -0.07063,-0.0699 0.20718,-0.5538 0.61736,-1.07525 0.89675,-1.14003 0.98983,-3.32751 0.19333,-4.54313 -0.88156,-1.34543 -2.30028,-1.60149 -8.87344,-1.60149 h -6.1456 l -1.65106,-1.13216 c -0.90808,-0.62268 -3.07981,-2.56737 -4.82606,-4.32152 l -3.175,-3.18937 19.41862,-0.17639 c 21.84912,-0.19847 20.89842,-0.0745 21.7249,-2.83303 0.36,-1.20158 0.33684,-1.61356 -0.14786,-2.62999 -1.24172,-2.6039 0.14241,-2.4643 -25.40655,-2.5621 l -22.895,-0.0876 -0.6166,-0.79433 c -1.12676,-1.45154 -4.60112,-7.41909 -4.60112,-7.90288 0,-0.39546 4.47076,-0.47616 26.37523,-0.47616 h 26.37522 l 4.57611,4.58629 4.576106,4.5863 4.60379,-4.59432 4.60379,-4.59431 26.35737,0.0245 c 18.6453,0.0173 26.35736,0.13616 26.35736,0.40606 0,0.46352 -1.70878,3.55973 -3.61646,6.55282 l -1.4053,2.20486 -22.27176,0.002 c -13.65346,0.001 -22.75968,0.13751 -23.53267,0.35224 -3.60753,1.00215 -4.19065,5.62436 -0.90616,7.18294 1.07791,0.51154 3.35396,0.57674 20.12387,0.57674 10.98879,0 18.90848,0.13316 18.90848,0.31793 0,0.45407 -5.08697,5.16084 -7.53533,6.97214 l -2.06728,1.52937 h -6.14614 c -6.95475,0 -8.17524,0.28568 -9.13297,2.13774 -0.70323,1.35989 -0.47736,2.95288 0.57797,4.07623 l 0.73262,0.77983 -1.69265,0.74874 c -2.55227,1.12899 -8.04025,2.766 -11.97475,3.57195 z"
       id="path24"
       sodipodi:nodetypes="scccccsssscccccccccsscccccccsccccccccccccccccccccccccccsssssssscsscsssccssscccccsssccssssscssscss" />
    <path
       id="rect26-5"
       style="fill:#000000;fill-rule:evenodd;stroke-width:0.211923"
       d="m 169.52737,173.92706 -53.16346,-0.13363 v 9.29626 h 49.42169 z"
       sodipodi:nodetypes="ccccc" />
  </g>
</svg>
