<?xml version="1.0" encoding="UTF-8"?>
<svg width="125.28mm" height="115.4mm" version="1.1" viewBox="0 0 125.28 115.4" xmlns="http://www.w3.org/2000/svg" xmlns:cc="http://creativecommons.org/ns#" xmlns:dc="http://purl.org/dc/elements/1.1/" xmlns:rdf="http://www.w3.org/1999/02/22-rdf-syntax-ns#">
 <metadata>
  <rdf:RDF>
   <cc:Work rdf:about="">
    <dc:format>image/svg+xml</dc:format>
    <dc:type rdf:resource="http://purl.org/dc/dcmitype/StillImage"/>
    <dc:title/>
   </cc:Work>
  </rdf:RDF>
 </metadata>
 <g transform="translate(-42.519 -158.35)">
  <path d="m102.72 273.75h-60.198v-88.005h23.835v9.7783h-15.279v69.059h102.06v-45.836h9.7783v55.003zm-0.30557-13.445h-46.447v-14.667h24.603l2.3676 2.139c1.7541 1.5848 2.921 2.139 4.5031 2.139s2.749-0.55425 4.5031-2.139l2.3676-2.139h54.549v14.667zm-15.279-14.056c-1.0186 0-1.2223-0.40743-1.2223-2.4446 0-1.7655-0.25464-2.4446-0.91672-2.4446-0.70374 0-0.91671-0.78091-0.91671-3.3613v-3.3613h-6.7226v-12.223h-1.5279c-1.3387 0-1.5279-0.26483-1.5279-2.139 0-1.9692-0.14551-2.139-1.8334-2.139h-1.8334v-49.503h14.578l1.5185-3.3168c1.0331-2.2566 2.2748-3.8173 3.8847-4.8827 1.3015-0.86126 3.6634-1.7437 5.2488-1.961 2.0455-0.28038 3.6779-0.0914 5.6216 0.65093 1.6271 0.62141 3.6922 2.1289 5.087 3.7135 1.5158 1.722 2.761 4.0342 3.5133 6.5235 0.8401 2.78 1.8508 4.5417 3.6218 6.3129 1.3862 1.3864 3.5526 2.7844 4.972 3.2085 1.3835 0.41339 2.9648 0.75161 3.5141 0.75161 0.87648 0 0.9986-1.0463 0.9986-8.556v-8.556h44.613v51.947h-44.613v-32.224l-2.7607-0.37839c-1.5184-0.20812-3.6497-0.82692-4.7364-1.3751-1.0866-0.5482-2.7572-1.7216-3.7123-2.6076-0.95513-0.88598-2.2328-2.575-2.8392-3.7533-0.6064-1.1783-1.4211-3.3253-1.8104-4.771-0.38928-1.4457-1.6852-3.7104-2.8798-5.0327-1.3337-1.4763-3.0812-2.6489-4.5278-3.0385-1.2957-0.3489-3.1224-0.45043-4.0594-0.22563-0.93695 0.2248-2.472 0.79601-3.4112 1.2694-0.93922 0.47334-2.2445 1.7411-2.9006 2.8172-0.65614 1.0761-1.194 2.3003-1.1953 2.7205-0.0017 0.57209 1.9929 0.76393 7.9426 0.76393h7.9449v49.503h-1.8334c-1.6879 0-1.8334 0.16976-1.8334 2.139 0 1.8742-0.18916 2.139-1.5279 2.139h-1.5279v12.223h-6.7226v3.3613c0 2.9539-0.14815 3.3613-1.2223 3.3613-1.0186 0-1.2223 0.40743-1.2223 2.4446s-0.20371 2.4446-1.2223 2.4446zm-5.7573-29.946c2.7949 0 3.2798-0.22566 5.6301-2.6205 1.4145-1.4413 2.5718-2.8163 2.5718-3.0557 0-0.23938-1.1792-0.43523-2.6203-0.43523-2.3357 0-2.9473 0.33196-5.6301 3.0557l-3.0098 3.0557zm11.915 0c2.4914 0 3.0333-0.28745 5.7599-3.0557l3.0098-3.0557h-2.7501c-2.4914 0-3.0333 0.28745-5.7599 3.0557l-3.0098 3.0557zm-18.075-3.0557c1.5126-1.4845 2.7501-2.7793 2.7501-2.8774 0-0.0981-1.2376-0.17833-2.7501-0.17833h-2.7501v5.7548zm53.933-1.9493c1.9897-0.16468 2.3173-0.41122 2.4852-1.8703 0.1829-1.5896 0.0587-1.6806-2.2918-1.6806-2.3648 0-2.4852 0.0906-2.4852 1.8703 0 1.7876 0.10142 1.8619 2.2918 1.6806zm6.5698 0.11589c1.9692 0 2.139-0.14552 2.139-1.8334 0-1.6879-0.16977-1.8334-2.139-1.8334-1.9692 0-2.139 0.14551-2.139 1.8334 0 1.6879 0.16976 1.8334 2.139 1.8334zm6.8244 0c1.8561 0 2.0371-0.16298 2.0371-1.8334 0-1.7316-0.13581-1.8334-2.4446-1.8334-2.1536 0-2.4446 0.16976-2.4446 1.426 0 0.7843 0.18334 1.6093 0.40743 1.8334 0.22408 0.22408 1.3241 0.40743 2.4446 0.40743zm6.1624-0.11589c1.9897-0.16468 2.3173-0.41122 2.4852-1.8703 0.1829-1.5896 0.0587-1.6806-2.2918-1.6806-2.3648 0-2.4852 0.0906-2.4852 1.8703 0 1.7876 0.10142 1.8619 2.2918 1.6806zm6.5698 0.11589c1.9692 0 2.139-0.14552 2.139-1.8334 0-1.6879-0.16977-1.8334-2.139-1.8334-1.9692 0-2.139 0.14551-2.139 1.8334 0 1.6879 0.16976 1.8334 2.139 1.8334zm6.417 0c2.3088 0 2.4446-0.10186 2.4446-1.8334s-0.13581-1.8334-2.4446-1.8334c-2.3088 0-2.4446 0.10186-2.4446 1.8334s0.1358 1.8334 2.4446 1.8334zm-32.391-5.5003c2.3088 0 2.4446-0.10186 2.4446-1.8334s-0.13581-1.8334-2.4446-1.8334c-2.3088 0-2.4446 0.10186-2.4446 1.8334s0.1358 1.8334 2.4446 1.8334zm6.417 0c1.9692 0 2.139-0.14551 2.139-1.8334 0-1.6879-0.16977-1.8334-2.139-1.8334-1.9692 0-2.139 0.14552-2.139 1.8334 0 1.6879 0.16976 1.8334 2.139 1.8334zm6.417 0c2.3088 0 2.4446-0.10186 2.4446-1.8334s-0.13581-1.8334-2.4446-1.8334c-2.3088 0-2.4446 0.10186-2.4446 1.8334s0.1358 1.8334 2.4446 1.8334zm6.7226 0c2.3088 0 2.4446-0.10186 2.4446-1.8334s-0.13581-1.8334-2.4446-1.8334-2.4446 0.10186-2.4446 1.8334 0.13581 1.8334 2.4446 1.8334zm6.417 0c1.9692 0 2.139-0.14551 2.139-1.8334 0-1.6879-0.16977-1.8334-2.139-1.8334-1.9692 0-2.139 0.14552-2.139 1.8334 0 1.6879 0.16976 1.8334 2.139 1.8334zm6.417 0c2.3088 0 2.4446-0.10186 2.4446-1.8334s-0.13581-1.8334-2.4446-1.8334c-2.3088 0-2.4446 0.10186-2.4446 1.8334s0.1358 1.8334 2.4446 1.8334zm-32.391-5.5003c2.3088 0 2.4446-0.10186 2.4446-1.8334s-0.13581-1.8334-2.4446-1.8334c-2.3088 0-2.4446 0.10186-2.4446 1.8334s0.1358 1.8334 2.4446 1.8334zm6.417 0c1.9692 0 2.139-0.14552 2.139-1.8334 0-1.6879-0.16977-1.8334-2.139-1.8334-1.9692 0-2.139 0.14551-2.139 1.8334 0 1.6879 0.16976 1.8334 2.139 1.8334zm6.417 0c2.3088 0 2.4446-0.10186 2.4446-1.8334s-0.13581-1.8334-2.4446-1.8334c-2.3088 0-2.4446 0.10186-2.4446 1.8334s0.1358 1.8334 2.4446 1.8334zm6.7226 0c2.3088 0 2.4446-0.10186 2.4446-1.8334s-0.13581-1.8334-2.4446-1.8334-2.4446 0.10186-2.4446 1.8334 0.13581 1.8334 2.4446 1.8334zm6.417 0c1.9692 0 2.139-0.14552 2.139-1.8334 0-1.6879-0.16977-1.8334-2.139-1.8334-1.9692 0-2.139 0.14551-2.139 1.8334 0 1.6879 0.16976 1.8334 2.139 1.8334zm6.417 0c2.3088 0 2.4446-0.10186 2.4446-1.8334s-0.13581-1.8334-2.4446-1.8334c-2.3088 0-2.4446 0.10186-2.4446 1.8334s0.1358 1.8334 2.4446 1.8334zm-32.35-5.5003c2.3505 0 2.4747-0.091 2.2918-1.6806-0.16789-1.4591-0.49548-1.7056-2.4852-1.8703-2.1904-0.18129-2.2918-0.10691-2.2918 1.6806 0 1.7797 0.1204 1.8703 2.4852 1.8703zm6.3764 0c1.9692 0 2.139-0.14551 2.139-1.8334s-0.16977-1.8334-2.139-1.8334c-1.9692 0-2.139 0.14551-2.139 1.8334s0.16976 1.8334 2.139 1.8334zm6.3764 0c2.3648 0 2.4852-0.0906 2.4852-1.8703 0-1.7876-0.10142-1.8619-2.2918-1.6806-1.9897 0.16467-2.3173 0.41121-2.4852 1.8703-0.1829 1.5896-0.0587 1.6806 2.2918 1.6806zm6.8038 0c2.3505 0 2.4747-0.091 2.2918-1.6806-0.16789-1.4591-0.49548-1.7056-2.4852-1.8703-2.1904-0.18129-2.2918-0.10691-2.2918 1.6806 0 1.7797 0.1204 1.8703 2.4852 1.8703zm6.3764 0c1.9692 0 2.139-0.14551 2.139-1.8334s-0.16977-1.8334-2.139-1.8334c-1.9692 0-2.139 0.14551-2.139 1.8334s0.16976 1.8334 2.139 1.8334zm6.417 0c2.3088 0 2.4446-0.10186 2.4446-1.8334s-0.13581-1.8334-2.4446-1.8334c-2.3088 0-2.4446 0.10186-2.4446 1.8334s0.1358 1.8334 2.4446 1.8334zm-16.195-6.7226h18.64v-22.612h-37.28v22.612zm-63.559 55.614c-0.50419 0-0.91671-0.41252-0.91671-0.91671 0-0.5042 0.41252-0.91672 0.91671-0.91672s0.91671 0.41252 0.91671 0.91672c0 0.50419-0.41252 0.91671-0.91671 0.91671zm10.644 0c-0.7468 0-1.1681-0.31585-1.0189-0.76393 0.1399-0.42016 0.71284-0.85285 1.2732-0.96152 0.60305-0.11696 1.0189 0.19481 1.0189 0.76393 0 0.56691-0.52253 0.96152-1.2732 0.96152zm-13.664-2.4446c-0.48436 0-1.0314-0.24385-1.2156-0.54189-0.1842-0.29805 0.03111-0.84569 0.47852-1.217 0.44739-0.3713 0.99438-0.49413 1.2156-0.27296 0.22117 0.22117 0.40213 0.76881 0.40213 1.217s-0.39629 0.81486-0.88064 0.81486zm17.076 0c-0.58714 0-0.92403-0.39531-0.80874-0.949 0.10867-0.52194 0.46884-1.0032 0.80036-1.0695 0.33153-0.0663 0.69546 0.36077 0.80874 0.949 0.12883 0.66896-0.17092 1.0695-0.80037 1.0695zm-20.779-2.4446c-0.50419 0-0.91671-0.41252-0.91671-0.91672 0-0.50419 0.41252-0.91671 0.91671-0.91671s0.91671 0.41252 0.91671 0.91671c0 0.5042-0.41252 0.91672-0.91671 0.91672zm24.446 0c-0.50419 0-0.91671-0.41252-0.91671-0.91672 0-0.50419 0.41252-0.91671 0.91671-0.91671s0.91671 0.41252 0.91671 0.91671c0 0.5042-0.41252 0.91672-0.91671 0.91672zm-28.418-1.2223c-0.29645 0-0.72378-0.29897-0.94962-0.66439s-0.10456-0.97045 0.2695-1.3445c0.4994-0.4994 0.86084-0.4994 1.3602 0 0.37406 0.37406 0.49534 0.97909 0.2695 1.3445s-0.65317 0.66439-0.94962 0.66439zm32.391 0c-0.29645 0-0.72378-0.29897-0.94963-0.66439-0.22584-0.36542-0.10456-0.97045 0.26951-1.3445 0.4994-0.4994 0.86084-0.4994 1.3602 0 0.37406 0.37406 0.49534 0.97909 0.2695 1.3445s-0.65317 0.66439-0.94962 0.66439zm10.389-42.169h-5.5003v-9.7783h11.001v9.7783z" stroke-width=".61114"/>
 </g>
</svg>
