<?xml version="1.0" encoding="UTF-8"?>
<svg width="34.664mm" height="46.182mm" version="1.1" viewBox="0 0 34.664 46.182" xmlns="http://www.w3.org/2000/svg" xmlns:cc="http://creativecommons.org/ns#" xmlns:dc="http://purl.org/dc/elements/1.1/" xmlns:rdf="http://www.w3.org/1999/02/22-rdf-syntax-ns#">
 <metadata>
  <rdf:RDF>
   <cc:Work rdf:about="">
    <dc:format>image/svg+xml</dc:format>
    <dc:type rdf:resource="http://purl.org/dc/dcmitype/StillImage"/>
    <dc:title/>
   </cc:Work>
  </rdf:RDF>
 </metadata>
 <g transform="translate(-94.69 -196.52)">
  <path d="m113.04 242.22c-0.0933 2e-3 -0.37282-0.50239-0.62107-1.1209-0.24825-0.61846-1.5113-3.9551-2.8069-7.4148-1.2955-3.4597-2.3555-6.466-2.3555-6.6807s0.23812-0.3904 0.52916-0.3904c0.44166 0 0.52917-0.17639 0.52917-1.0666 0-0.70405 0.13491-1.1184 0.39688-1.2189 0.34548-0.13258 0.39687-1.8724 0.39687-13.436v-13.284l0.92968-0.44334c0.51133-0.24383 1.3928-0.51739 1.9589-0.6079 0.66132-0.10575 1.5039-7e-3 2.3572 0.27654 0.73044 0.24261 1.4444 0.58341 1.5866 0.75734 0.15449 0.18894 0.33695 5.5701 0.45332 13.369 0.15882 10.644 0.26132 13.078 0.55554 13.191 0.22892 0.0878 0.3608 0.56333 0.3608 1.3008 0 1.0722 0.0528 1.1623 0.68086 1.1623 0.42703 0 0.64897 0.12861 0.59531 0.34497-0.047 0.18973-1.2762 3.7004-2.7314 7.8016-1.4552 4.1011-2.7222 7.4582-2.8156 7.4602z" stroke-width=".26458"/>
  <path d="m127.09 242.7c-0.0546 0-0.23217-0.42872-0.39454-0.9527s-0.60772-1.8101-0.98966-2.8581l-0.69445-1.9054-0.0943-19.977-0.0943-19.977 0.61071-0.13857c0.3359-0.0762 1.1665-0.13995 1.8458-0.14164 0.67932-2e-3 1.4235 0.0582 1.6536 0.13301 0.37666 0.12245 0.41849 1.8766 0.41829 17.541-1.3e-4 9.9169-0.11499 18.466-0.267 19.871-0.14672 1.3562-0.63311 3.8024-1.0809 5.436-0.44776 1.6336-0.85881 2.9702-0.91344 2.9702z" stroke-width=".24354"/>
  <path d="m98.928 242.43c-0.10002 0-0.26123-0.0625-0.35824-0.13895-0.09701-0.0764-0.17639-0.30537-0.17639-0.50877 0-0.20339-0.10641-0.42162-0.23648-0.48494-0.13006-0.0633-0.66202 0.0249-1.1821 0.19613-0.52011 0.17119-1.2471 0.31125-1.6156 0.31125-0.36848 0-0.66996-0.0903-0.66996-0.20061 0-0.11033 0.25076-0.72856 0.55724-1.3738 0.52957-1.115 0.53692-1.2318 0.14808-2.3526-0.22504-0.64866-0.48392-1.6014-0.5753-2.1173-0.10036-0.56655 0.0019-1.5755 0.25816-2.5481 0.39126-1.4848 0.39032-1.7423-0.01201-3.3065-0.28042-1.0902-0.37368-2.0683-0.26101-2.7374 0.09643-0.57261 0.35284-1.453 0.56981-1.9564 0.36529-0.84757 0.35378-1.0192-0.15537-2.3178-0.53118-1.3547-0.54878-1.8047-0.51784-13.233l0.03202-11.831 0.82675-0.46375c0.57984-0.32525 1.32-0.4885 2.4785-0.5466 1.3206-0.0662 1.899 0.0114 2.885 0.38744l1.2332 0.47029-0.1175 12.424c-0.0998 10.554-0.17939 12.557-0.52872 13.312-0.36742 0.79363-0.36918 1.0012-0.0165 1.9489 0.30175 0.81089 0.35503 1.6325 0.22622 3.4887-0.0927 1.3354-0.13797 2.8501-0.10065 3.366 0.0373 0.51585 0.0679 1.9227 0.0679 3.1264 0 1.2037-0.0506 2.6106-0.11237 3.1264-0.0618 0.51586-0.0155 1.3834 0.10297 1.928 0.21047 0.96761 0.2 0.99003-0.46252 0.99003-0.37283 0-0.99904 0.23448-1.3916 0.52107-0.39255 0.28658-0.79556 0.52106-0.89558 0.52106z" stroke-width=".23483"/>
 </g>
</svg>
