<?xml version="1.0" encoding="UTF-8"?>
<svg width="274.62mm" height="274.82mm" version="1.1" viewBox="0 0 274.62 274.82" xmlns="http://www.w3.org/2000/svg" xmlns:cc="http://creativecommons.org/ns#" xmlns:dc="http://purl.org/dc/elements/1.1/" xmlns:rdf="http://www.w3.org/1999/02/22-rdf-syntax-ns#">
 <metadata>
  <rdf:RDF>
   <cc:Work rdf:about="">
    <dc:format>image/svg+xml</dc:format>
    <dc:type rdf:resource="http://purl.org/dc/dcmitype/StillImage"/>
    <dc:title/>
   </cc:Work>
  </rdf:RDF>
 </metadata>
 <g transform="translate(9.7609 -133.18)">
  <path d="m127.31 407.98c-0.65484 0.0548-1.9645 0.0164-2.9104-0.0851-0.94589-0.10163-2.3832-0.43471-3.1939-0.74017s-2.2395-1.0155-3.175-1.578c-0.93547-0.5624-26.883-15.064-57.66-32.225-30.778-17.161-56.614-31.538-57.415-31.948-0.80036-0.41002-2.2538-1.3342-3.2298-2.0538-0.97602-0.71959-2.3953-1.9855-3.1539-2.8131-0.7586-0.8276-1.9171-2.3339-2.5744-3.3474-0.65733-1.0135-1.5354-2.6526-1.9513-3.6424-0.41589-0.98986-0.99762-2.7205-1.2927-3.8458-0.52277-1.9936-0.5357-2.7186-0.50328-28.226 0.02202-17.328 0.12827-26.632 0.31424-27.517 0.15453-0.73541 0.58676-1.992 0.96052-2.7923 0.38143-0.81681 1.3265-2.0936 2.1543-2.9104 1.1732-1.1577 4.8435-3.4527 17.953-11.226 12.895-7.6455 16.404-9.8373 16.138-10.078-0.18724-0.16919-7.127-4.2224-15.422-9.0072-14.855-8.5694-15.115-8.7334-17.346-10.956-1.2456-1.2412-2.5855-2.8146-2.9776-3.4963-0.39213-0.68176-0.90438-1.9868-1.1383-2.9-0.35715-1.3941-0.37623-1.9592-0.11896-3.523 0.16853-1.0244 0.60386-2.5136 0.9674-3.3093 0.36354-0.79572 1.1172-2.051 1.6747-2.7894 0.55755-0.73847 1.6536-1.7789 2.4356-2.312 0.78204-0.53312 28.092-16.178 60.689-34.766 32.597-18.588 60.16-34.249 61.251-34.803 1.0914-0.55393 2.7583-1.2092 3.7042-1.456 1.0897-0.28442 2.7376-0.44887 4.4979-0.44887 1.7564 0 3.4106 0.16472 4.4979 0.44789 0.94589 0.24634 2.7318 0.96071 3.9688 1.5875 1.2369 0.62679 29.038 16.218 61.78 34.646 32.742 18.429 60.114 33.84 60.827 34.248 0.71268 0.4081 2.0224 1.4716 2.9104 2.3634 0.88805 0.89176 2.0643 2.38 2.6138 3.3073 0.54954 0.92726 1.2639 2.4598 1.5875 3.4057l0.5883 1.7198 0.0745 26.326c0.0662 23.392 0.0271 26.541-0.35095 28.254-0.23399 1.0604-0.89291 2.8619-1.4642 4.0034-0.6368 1.2723-1.7033 2.7932-2.756 3.9302-0.94448 1.0201-2.2836 2.216-2.9759 2.6575s-1.9864 1.1986-2.8758 1.6824c-0.88943 0.48384-8.0587 4.5111-15.932 8.9495-7.8731 4.4384-14.282 8.1812-14.241 8.3174 0.0403 0.13619 6.8524 4.694 15.138 10.128 8.2857 5.4345 15.881 10.366 16.879 10.959 0.99772 0.59301 2.2736 1.5378 2.8352 2.0994 0.56169 0.56168 1.3091 1.5908 1.6608 2.287 0.35177 0.69619 0.78029 1.9471 0.95229 2.7797 0.26038 1.2604 0.24241 1.7884-0.10729 3.1534-0.23101 0.9017-0.65624 2.0217-0.94498 2.4889-0.28874 0.46719-1.0316 1.3164-1.6508 1.8872s-1.8388 1.5147-2.7102 2.0976c-0.87144 0.58295-28.575 16.234-61.564 34.779s-60.685 34.105-61.548 34.576c-0.8626 0.47117-2.2682 1.0267-3.1236 1.2345-0.85537 0.20781-2.091 0.42265-2.7458 0.47744zm-0.92604-16.024c0.29104-0.0497 26.08-14.128 57.308-31.285 31.228-17.157 56.827-31.308 56.885-31.445 0.0588-0.13778-7.309-5.1228-16.373-11.078l-16.48-10.827-38.992 22.279c-21.446 12.254-39.45 22.442-40.009 22.642-0.55908 0.19935-1.7457 0.36767-2.6369 0.37406-0.89121 6e-3 -2.0818-0.15126-2.6458-0.35033-0.56399-0.19908-17.206-9.4324-36.983-20.519-19.777-11.086-36.05-20.18-36.164-20.209-0.11349-0.029-7.9535 4.2926-17.422 9.6036-9.4688 5.311-17.216 9.726-17.216 9.8112 0 0.0851 24.795 13.866 55.099 30.625 33.848 18.718 55.304 30.435 55.629 30.38zm0.51531-56.742c0.44419-0.25851 25.781-14.389 56.304-31.402 30.523-17.012 55.496-31.001 55.496-31.085 0-0.0846-7.4613-4.6148-16.581-10.067-9.1194-5.4524-16.731-9.9502-16.914-9.9952-0.18345-0.045-17.131 9.7545-37.662 21.777s-37.735 22.028-38.232 22.236-1.5476 0.4532-2.335 0.54574c-0.97899 0.11506-1.8953 0.0334-2.8988-0.25833-0.90757-0.26384-16.14-8.6667-39.929-22.027-21.154-11.88-38.835-21.778-39.291-21.996l-0.82923-0.39628-16.104 9.0538c-8.8573 4.9796-16.193 9.138-16.302 9.241-0.10866 0.10296 25.603 14.735 57.136 32.515l57.334 32.328zm-121.1-16.163c0.5457-0.2825 7.3222-4.0652 15.059-8.4059 7.7367-4.3407 14.092-8.0084 14.122-8.1504 0.03058-0.142-6.5971-3.9753-14.728-8.5184-8.1311-4.5431-14.933-8.2667-15.115-8.2746-0.26129-0.0113-0.33073 3.5421-0.33073 16.924v16.939zm120.47-38.984c0.22875-0.0374 14.662-8.1047 32.073-17.927 17.412-9.8226 31.623-17.972 31.581-18.11-0.0418-0.13798-14.296-8.7398-31.676-19.115s-31.809-18.835-32.064-18.799-15.043 8.3399-32.861 18.454c-17.819 10.114-32.37 18.488-32.337 18.611 0.03354 0.12211 14.643 8.4871 32.465 18.589 17.822 10.102 32.591 18.336 32.82 18.299zm124.14-17.928c0.10914 2.1e-4 0.19843-8.1554 0.19843-18.124 0-9.9682-0.0928-18.124-0.2063-18.124-0.11346 0-7.0488 3.9311-15.412 8.7358-8.3631 4.8047-15.206 8.8532-15.206 8.9968s6.8461 4.368 15.214 9.3878c8.3674 5.0198 15.303 9.127 15.412 9.1272zm-43.962-27.606c0.5236-0.31422 8.2929-4.9761 17.265-10.36 8.9722-5.3837 16.283-9.8753 16.247-9.9813-0.0366-0.10601-23.641-13.752-52.454-30.324l-52.388-30.132-0.159 5.1879c-0.0875 2.8533-0.20652 11.669-0.26459 19.589l-0.10558 14.402 70.907 42.189zm-162.21-0.87065c0.65484-0.35472 17.443-9.661 37.306-20.681l36.116-20.036 0.0678-19.635 0.0678-19.635-0.86159 0.50448c-0.47387 0.27747-24.65 13.956-53.725 30.396-29.075 16.441-52.858 29.991-52.852 30.113 0.0063 0.12168 7.3642 4.5852 16.351 9.919l16.34 9.6978z" stroke-width=".26458"/>
 </g>
</svg>
